<?xml version="1.0" encoding="UTF-8" standalone="no"?><!DOCTYPE svg PUBLIC "-//W3C//DTD SVG 1.1//EN" "http://www.w3.org/Graphics/SVG/1.1/DTD/svg11.dtd"><!-- Generated by graphviz version 2.40.1 (20161225.0304)
 --><!-- Title: AddCuccaro(5) Pages: 1 --><svg xmlns="http://www.w3.org/2000/svg" xmlns:xlink="http://www.w3.org/1999/xlink" width="134pt" height="118pt" viewBox="0.00 0.00 134.00 118.00">
<g id="graph0" class="graph" transform="scale(1 1) rotate(0) translate(4 114)">
<title>AddCuccaro(5)</title>
<polygon fill="#ffffff" stroke="transparent" points="-4,4 -4,-114 130,-114 130,4 -4,4"/>
<!-- n0 -->
<g id="node1" class="node">
<title>n0</title>
<polygon fill="none" stroke="#000000" points="11.4656,-73.5 11.4656,-109.5 114.5344,-109.5 114.5344,-73.5 11.4656,-73.5"/>
<text text-anchor="middle" x="63" y="-87.3" font-family="Times,serif" font-size="14.00" fill="#000000">AddCuccaro(5)</text>
</g>
<!-- n1 -->
<g id="node2" class="node">
<title>n1</title>
<polygon fill="none" stroke="#000000" points="0,-.5 0,-36.5 54,-36.5 54,-.5 0,-.5"/>
<text text-anchor="middle" x="26.9979" y="-14.3" font-family="Times,serif" font-size="14.00" fill="#000000">MAJ</text>
</g>
<!-- n0&#45;&gt;n1 -->
<g id="edge1" class="edge">
<title>n0-&gt;n1</title>
<path fill="none" stroke="#000000" d="M54.1011,-73.4551C49.9905,-65.1196 45.0205,-55.0416 40.4651,-45.8042"/>
<polygon fill="#000000" stroke="#000000" points="43.4833,-44.011 35.9213,-36.5904 37.2052,-47.1071 43.4833,-44.011"/>
</g>
<!-- n2 -->
<g id="node3" class="node">
<title>n2</title>
<polygon fill="none" stroke="#000000" points="72,-.5 72,-36.5 126,-36.5 126,-.5 72,-.5"/>
<text text-anchor="middle" x="98.8289" y="-14.3" font-family="Times,serif" font-size="14.00" fill="#000000">UMA</text>
</g>
<!-- n0&#45;&gt;n2 -->
<g id="edge2" class="edge">
<title>n0-&gt;n2</title>
<path fill="none" stroke="#000000" d="M71.8989,-73.4551C76.0095,-65.1196 80.9795,-55.0416 85.5349,-45.8042"/>
<polygon fill="#000000" stroke="#000000" points="88.7948,-47.1071 90.0787,-36.5904 82.5167,-44.011 88.7948,-47.1071"/>
</g>
</g>
</svg>