<?xml version="1.0" encoding="UTF-8" standalone="no"?><!DOCTYPE svg PUBLIC "-//W3C//DTD SVG 1.1//EN" "http://www.w3.org/Graphics/SVG/1.1/DTD/svg11.dtd"><!-- Generated by graphviz version 2.40.1 (20161225.0304)
 --><!-- Title: UncomputeTemporalAnd Pages: 1 --><svg xmlns="http://www.w3.org/2000/svg" xmlns:xlink="http://www.w3.org/1999/xlink" width="282pt" height="317pt" viewBox="0.00 0.00 281.56 316.60">
<g id="graph0" class="graph" transform="scale(1 1) rotate(0) translate(4 312.6)">
<title>UncomputeTemporalAnd</title>
<polygon fill="#ffffff" stroke="transparent" points="-4,4 -4,-312.6 277.5646,-312.6 277.5646,4 -4,4"/>
<!-- n0 -->
<g id="node1" class="node">
<title>n0</title>
<polygon fill="none" stroke="#000000" points="42.2865,-208.1 42.2865,-308.1 233.2781,-308.1 233.2781,-208.1 42.2865,-208.1"/>
<text text-anchor="start" x="50.2865" y="-291.5" font-family="Times,serif" font-size="14.00" fill="#000000">%entry:</text>
<text text-anchor="start" x="50.2865" y="-274.7" font-family="Times,serif" font-size="14.00" fill="#000000">  H @q0</text>
<text text-anchor="start" x="50.2865" y="-257.9" font-family="Times,serif" font-size="14.00" fill="#000000">  Measurement @q0 @r0</text>
<text text-anchor="start" x="50.2865" y="-241.1" font-family="Times,serif" font-size="14.00" fill="#000000">  Branch @r0 %then0 %else0</text>
<polyline fill="none" stroke="#000000" points="42.2865,-232.9 233.2781,-232.9 "/>
<text text-anchor="middle" x="88.6694" y="-216.3" font-family="Times,serif" font-size="14.00" fill="#000000">true</text>
<polyline fill="none" stroke="#000000" points="135.0523,-208.1 135.0523,-232.9 "/>
<text text-anchor="middle" x="183.7648" y="-216.3" font-family="Times,serif" font-size="14.00" fill="#000000">false</text>
</g>
<!-- n1 -->
<g id="node2" class="node">
<title>n1</title>
<polygon fill="none" stroke="#000000" points="0,-95.9 0,-171.1 127.5646,-171.1 127.5646,-95.9 0,-95.9"/>
<text text-anchor="start" x="8" y="-154.5" font-family="Times,serif" font-size="14.00" fill="#000000">%then0:</text>
<text text-anchor="start" x="8" y="-137.7" font-family="Times,serif" font-size="14.00" fill="#000000">  X @q0</text>
<text text-anchor="start" x="8" y="-120.9" font-family="Times,serif" font-size="14.00" fill="#000000">  CZ @q1 @q2</text>
<text text-anchor="start" x="8" y="-104.1" font-family="Times,serif" font-size="14.00" fill="#000000">  Branch %ifcont0</text>
</g>
<!-- n0&#45;&gt;n1 -->
<g id="edge2" class="edge">
<title>n0:s-&gt;n1:n</title>
<path fill="none" stroke="#000000" d="M88.7823,-208.1C88.7823,-192.556 73.2168,-191.0197 66.6501,-181.3852"/>
<polygon fill="#000000" stroke="#000000" points="69.93,-180.1288 63.7823,-171.5 63.2072,-182.0792 69.93,-180.1288"/>
</g>
<!-- n2 -->
<g id="node3" class="node">
<title>n2</title>
<polygon fill="none" stroke="#000000" points="146,-112.7 146,-154.3 273.5646,-154.3 273.5646,-112.7 146,-112.7"/>
<text text-anchor="start" x="154" y="-137.7" font-family="Times,serif" font-size="14.00" fill="#000000">%else0:</text>
<text text-anchor="start" x="154" y="-120.9" font-family="Times,serif" font-size="14.00" fill="#000000">  Branch %ifcont0</text>
</g>
<!-- n0&#45;&gt;n2 -->
<g id="edge1" class="edge">
<title>n0:s-&gt;n2:n</title>
<path fill="none" stroke="#000000" d="M183.7823,-208.1C183.7823,-185.5532 202.6364,-181.7379 208.2337,-164.752"/>
<polygon fill="#000000" stroke="#000000" points="211.7494,-164.9106 209.7823,-154.5 204.8279,-163.8651 211.7494,-164.9106"/>
</g>
<!-- n3 -->
<g id="node4" class="node">
<title>n3</title>
<polygon fill="none" stroke="#000000" points="89.0972,-.5 89.0972,-58.9 184.4674,-58.9 184.4674,-.5 89.0972,-.5"/>
<text text-anchor="start" x="97.0972" y="-42.3" font-family="Times,serif" font-size="14.00" fill="#000000">%ifcont0:</text>
<text text-anchor="start" x="97.0972" y="-25.5" font-family="Times,serif" font-size="14.00" fill="#000000">  Clean @q0</text>
<text text-anchor="start" x="97.0972" y="-8.7" font-family="Times,serif" font-size="14.00" fill="#000000">  Return</text>
</g>
<!-- n1&#45;&gt;n3 -->
<g id="edge3" class="edge">
<title>n1:s-&gt;n3:n</title>
<path fill="none" stroke="#000000" d="M63.7823,-95.5C63.7823,-63.2821 121.18,-87.8341 134.1842,-68.4781"/>
<polygon fill="#000000" stroke="#000000" points="137.5969,-69.2635 136.7823,-58.7 130.8316,-67.4658 137.5969,-69.2635"/>
</g>
<!-- n2&#45;&gt;n3 -->
<g id="edge4" class="edge">
<title>n2:s-&gt;n3:n</title>
<path fill="none" stroke="#000000" d="M209.7823,-112.5C209.7823,-76.1323 150.3439,-94.4079 138.7349,-68.7127"/>
<polygon fill="#000000" stroke="#000000" points="142.1317,-67.8452 136.7823,-58.7 135.2611,-69.1851 142.1317,-67.8452"/>
</g>
</g>
</svg>